# Blender 4.5.0
# www.blender.org
mtllib BookExit.mtl
o book.057
v -0.103330 -0.121494 -0.092697
v 0.106118 0.126058 -0.092697
v 0.106118 -0.121494 -0.092697
v 0.098437 -0.121494 -0.100341
v -0.103330 -0.121494 -0.100341
v -0.103330 0.126058 -0.092697
v -0.103330 0.126058 -0.100341
v 0.098437 0.126058 -0.100341
v 0.098437 0.126058 -0.146987
v 0.106118 0.126058 -0.154631
v 0.098437 0.118181 -0.100341
v -0.096333 0.117787 -0.100341
v -0.096333 -0.113223 -0.100341
v -0.096333 -0.113223 -0.146987
v -0.096333 0.117787 -0.146987
v -0.103330 -0.121494 -0.146987
v -0.103330 0.126058 -0.146987
v 0.098437 0.118181 -0.146987
v -0.103330 -0.121494 -0.154631
v -0.103330 0.126058 -0.154631
v 0.106118 -0.121494 -0.154631
v 0.098437 -0.121494 -0.146987
v 0.098437 -0.113617 -0.146987
v 0.098437 -0.113617 -0.100341
vn -0.0000 -0.0000 1.0000
vn -0.0000 -1.0000 -0.0000
vn -1.0000 -0.0000 -0.0000
vn -0.0000 1.0000 -0.0000
vn -0.0000 -0.0000 -1.0000
vn -0.0020 1.0000 -0.0000
vn 1.0000 -0.0000 -0.0000
vn -0.0020 -1.0000 -0.0000
vt 0.926234 -0.018896
vt 0.926234 1.018896
vt 0.253454 1.018896
vt 0.253454 -0.018896
vt 0.471922 0.115748
vt 0.425902 0.085337
vt 0.425902 0.914663
vt 0.471922 0.914663
vt 0.571438 0.891019
vt 0.594849 0.891019
vt 0.594849 0.108981
vt 0.571438 0.108981
vt 0.403070 0.036670
vt 0.403070 1.000000
vt 0.371305 1.000000
vt 0.371305 0.000000
vt 0.636620 0.449434
vt 0.578116 0.550566
vt 0.636620 0.550566
vt 0.410292 0.036670
vt 0.619106 0.000000
vt 0.589708 0.036670
vt 0.380894 0.000000
vt 0.639473 0.036670
vt 0.577981 0.036670
vt 0.574911 0.966592
vt 0.639473 1.000000
vt 0.610214 0.905252
vt 0.610214 0.125022
vt 0.576806 0.151088
vt 0.576806 0.879186
vt 0.082502 0.550069
vt 0.003419 0.449931
vt 0.082502 0.449931
vt 0.003419 0.550069
vt 0.082502 0.999979
vt 0.575611 0.938314
vt 0.542203 0.913146
vt 0.542203 0.210139
vt 0.575611 0.184971
vt 0.003419 0.999979
vt 0.578116 0.449434
vt 0.428562 0.108981
vt 0.405151 0.891019
vt 0.428562 0.891019
vt 0.405151 0.108981
vt 0.596930 0.036670
vt 0.628695 1.000000
vt 0.596930 1.000000
vt 0.628695 0.000000
vt 0.576538 0.036670
vt 0.601621 0.000000
vt 0.398379 0.000000
vt 0.533491 0.105655
vt 0.568684 0.925555
vt 0.568684 0.074445
vt 0.999339 0.835613
vt 0.797896 0.242512
vt 0.999339 0.242512
vt 0.423462 0.036670
vt 0.372964 0.637578
vt 0.412299 0.362422
vt 0.372964 0.362422
vt 0.373548 0.036670
vt 0.410236 0.036670
vt 0.412068 0.966592
vt 0.533491 0.925555
vt 0.373548 1.000000
vt 0.412299 0.637578
vt 0.003419 0.000021
vt 0.082502 0.000021
vt 0.797896 0.835613
s 1
usemtl bookJauneE
f 2/1/1 6/2/1 1/3/1
f 2/1/1 1/3/1 3/4/1
f 4/5/2 3/6/2 1/7/2
f 4/5/2 1/7/2 5/8/2
f 5/9/3 1/10/3 6/11/3
f 5/9/3 6/11/3 7/12/3
f 8/13/4 7/14/4 6/15/4
f 8/13/4 6/15/4 2/16/4
f 9/17/3 11/18/3 8/19/3
f 8/20/4 10/21/4 9/22/4
f 8/20/4 2/23/4 10/21/4
f 8/24/5 11/25/5 12/26/5
f 8/24/5 12/26/5 7/27/5
f 5/28/5 7/29/5 12/30/5
f 5/28/5 12/30/5 13/31/5
f 12/32/3 14/33/3 13/34/3
f 12/32/3 15/35/3 14/33/3
f 15/35/6 12/32/6 11/36/6
f 16/37/1 14/38/1 15/39/1
f 16/37/1 15/39/1 17/40/1
f 9/24/1 17/27/1 15/26/1
f 9/24/1 15/26/1 18/25/1
f 15/35/6 11/36/6 18/41/6
f 9/17/3 18/42/3 11/18/3
f 17/43/3 19/44/3 16/45/3
f 17/43/3 20/46/3 19/44/3
f 9/47/4 20/48/4 17/49/4
f 9/47/4 10/50/4 20/48/4
f 20/2/5 21/4/5 19/3/5
f 20/2/5 10/1/5 21/4/5
f 22/51/2 21/52/2 3/53/2
f 22/54/2 19/55/2 21/56/2
f 10/57/7 3/58/7 21/59/7
f 22/51/2 3/53/2 4/60/2
f 4/61/3 23/62/3 22/63/3
f 22/64/1 23/65/1 14/66/1
f 22/54/2 16/67/2 19/55/2
f 22/64/1 14/66/1 16/68/1
f 4/61/3 24/69/3 23/62/3
f 23/70/8 13/34/8 14/33/8
f 23/70/8 24/71/8 13/34/8
f 4/64/5 13/66/5 24/65/5
f 4/64/5 5/68/5 13/66/5
f 10/57/7 2/72/7 3/58/7
