# Blender 4.5.3 LTS
# www.blender.org
mtllib book.mtl
o Bibliotheque.055
v -0.103330 -0.123776 0.030967
v -0.103330 0.123776 0.030967
v 0.106118 -0.123776 0.030967
v -0.103330 -0.123776 0.023323
v -0.096333 -0.115505 0.023323
v -0.103330 0.123776 0.023323
v 0.098437 -0.123776 0.023323
v 0.098437 -0.115899 0.023323
v 0.098437 -0.123776 -0.023323
v -0.103330 -0.123776 -0.023323
v 0.106118 -0.123776 -0.030967
v 0.098437 -0.115899 -0.023323
v -0.096333 -0.115505 -0.023323
v -0.096333 0.115505 -0.023323
v -0.096333 0.115505 0.023323
v 0.098437 0.115899 -0.023323
v -0.103330 0.123776 -0.023323
v 0.098437 0.123776 -0.023323
v -0.103330 0.123776 -0.030967
v -0.103330 -0.123776 -0.030967
v 0.106118 0.123776 -0.030967
v 0.106118 0.123776 0.030967
v 0.098437 0.123776 0.023323
v 0.098437 0.115899 0.023323
vn -0.0000 -0.0000 1.0000
vn -1.0000 -0.0000 -0.0000
vn -0.0000 -1.0000 -0.0000
vn -0.0000 -0.0000 -1.0000
vn -0.0020 -1.0000 -0.0000
vn -0.0020 1.0000 -0.0000
vn -0.0000 1.0000 -0.0000
vn 1.0000 -0.0000 -0.0000
vt 0.926234 -0.018896
vt 0.253454 1.018896
vt 0.253454 -0.018896
vt 0.571438 0.891019
vt 0.594849 0.108981
vt 0.571438 0.108981
vt 0.471922 0.115748
vt 0.425902 0.914663
vt 0.471922 0.914663
vt 0.373548 0.036670
vt 0.412068 0.966592
vt 0.410236 0.036670
vt 0.610214 0.905252
vt 0.576806 0.151088
vt 0.576806 0.879186
vt 0.372964 0.637578
vt 0.412299 0.362422
vt 0.372964 0.362422
vt 0.576538 0.036670
vt 0.398379 0.000000
vt 0.423462 0.036670
vt 0.373548 1.000000
vt 0.533491 0.105655
vt 0.568684 0.925555
vt 0.568684 0.074445
vt 0.003419 0.000021
vt 0.082502 0.449931
vt 0.003419 0.449931
vt 0.082502 0.550069
vt 0.575611 0.938314
vt 0.542203 0.210139
vt 0.575611 0.184971
vt 0.003419 0.550069
vt 0.082502 0.999979
vt 0.003419 0.999979
vt 0.639473 0.036670
vt 0.574911 0.966592
vt 0.577981 0.036670
vt 0.428562 0.108981
vt 0.405151 0.891019
vt 0.428562 0.891019
vt 0.596930 0.036670
vt 0.628695 1.000000
vt 0.596930 1.000000
vt 0.926234 1.018896
vt 0.360592 0.089547
vt 0.639408 0.910453
vt 0.360592 0.910453
vt 0.410292 0.036670
vt 0.619106 0.000000
vt 0.589708 0.036670
vt 0.403070 0.036670
vt 0.371305 1.000000
vt 0.371305 0.000000
vt 0.636620 0.449434
vt 0.578116 0.550566
vt 0.636620 0.550566
vt 0.639473 1.000000
vt 0.594849 0.891019
vt 0.425902 0.085337
vt 0.610214 0.125022
vt 0.412299 0.637578
vt 0.601621 0.000000
vt 0.533491 0.925555
vt 0.082502 0.000021
vt 0.542203 0.913146
vt 0.405151 0.108981
vt 0.628695 0.000000
vt 0.639408 0.089547
vt 0.380894 0.000000
vt 0.403070 1.000000
vt 0.578116 0.449434
s 0
usemtl Material
f 22/1/1 1/2/1 3/3/1
f 4/4/2 2/5/2 6/6/2
f 7/7/3 1/8/3 4/9/3
f 7/10/4 5/11/4 8/12/4
f 4/13/4 15/14/4 5/15/4
f 7/16/2 12/17/2 9/18/2
f 9/19/3 3/20/3 7/21/3
f 9/10/1 13/11/1 10/22/1
f 9/23/3 20/24/3 11/25/3
f 12/26/5 5/27/5 13/28/5
f 15/29/2 13/28/2 5/27/2
f 10/30/1 14/31/1 17/32/1
f 14/33/6 24/34/6 16/35/6
f 18/36/1 14/37/1 16/38/1
f 17/39/2 20/40/2 10/41/2
f 18/42/7 19/43/7 17/44/7
f 19/45/4 11/3/4 20/2/4
f 21/46/8 3/47/8 11/48/8
f 23/49/7 21/50/7 18/51/7
f 23/52/7 2/53/7 22/54/7
f 18/55/2 24/56/2 23/57/2
f 23/36/4 15/37/4 6/58/4
f 22/1/1 2/45/1 1/2/1
f 4/4/2 1/59/2 2/5/2
f 7/7/3 3/60/3 1/8/3
f 7/10/4 4/22/4 5/11/4
f 4/13/4 6/61/4 15/14/4
f 7/16/2 8/62/2 12/17/2
f 9/19/3 11/63/3 3/20/3
f 9/10/1 12/12/1 13/11/1
f 9/23/3 10/64/3 20/24/3
f 12/26/5 8/65/5 5/27/5
f 15/29/2 14/33/2 13/28/2
f 10/30/1 13/66/1 14/31/1
f 14/33/6 15/29/6 24/34/6
f 18/36/1 17/58/1 14/37/1
f 17/39/2 19/67/2 20/40/2
f 18/42/7 21/68/7 19/43/7
f 19/45/4 21/1/4 11/3/4
f 21/46/8 22/69/8 3/47/8
f 23/49/7 22/70/7 21/50/7
f 23/52/7 6/71/7 2/53/7
f 18/55/2 16/72/2 24/56/2
f 23/36/4 24/38/4 15/37/4
