# Blender 4.5.0
# www.blender.org
mtllib lever.mtl
o Cube.002
v 0.640349 1.362092 -0.177601
v -0.640349 1.362092 -0.177601
v 0.640349 1.362092 0.177601
v -0.640349 1.362092 0.177601
v 0.640349 1.166247 -0.177601
v -0.640349 1.166246 -0.177601
v 0.640349 1.166247 0.177601
v -0.640349 1.166246 0.177601
v 0.542298 -0.009906 -0.105418
v 0.542297 1.270792 -0.105418
v 0.542298 -0.009906 0.105417
v 0.542298 1.270792 0.105417
v 0.346452 -0.009906 -0.105418
v 0.346452 1.270792 -0.105418
v 0.346452 -0.009906 0.105417
v 0.346452 1.270792 0.105417
v -0.542298 -0.009906 -0.105417
v -0.542298 1.270792 -0.105417
v -0.542298 -0.009906 0.105417
v -0.542298 1.270792 0.105417
v -0.346452 -0.009906 -0.105417
v -0.346453 1.270792 -0.105417
v -0.346452 -0.009906 0.105417
v -0.346452 1.270792 0.105417
vn -0.0000 1.0000 -0.0000
vn -0.0000 -0.0000 1.0000
vn -0.0000 -1.0000 -0.0000
vn -0.0000 -0.0000 -1.0000
vn 1.0000 -0.0000 -0.0000
vn -1.0000 -0.0000 -0.0000
vt 0.823380 0.147172
vt 0.951057 0.019495
vt 0.951057 0.147172
vt 0.823380 0.852828
vt 0.951057 0.980505
vt 0.823380 0.980505
vt 0.823380 0.313839
vt 0.951057 0.186161
vt 0.951057 0.313839
vt 0.823380 0.480506
vt 0.951057 0.352828
vt 0.951057 0.480506
vt 0.951057 0.647172
vt 0.823380 0.519495
vt 0.951057 0.519495
vt 0.951057 0.813839
vt 0.823380 0.686161
vt 0.951057 0.686161
vt 0.249042 0.019495
vt 0.324827 0.854419
vt 0.249042 0.854419
vt 0.478589 0.019495
vt 0.498114 0.854419
vt 0.478590 0.854419
vt 0.439600 0.854419
vt 0.363816 0.019495
vt 0.439600 0.019495
vt 0.537103 0.019495
vt 0.556628 0.854419
vt 0.537103 0.854419
vt 0.124845 0.928329
vt 0.049060 0.908804
vt 0.124845 0.908804
vt 0.163834 0.908804
vt 0.239618 0.928329
vt 0.163834 0.928329
vt 0.095279 0.019495
vt 0.019495 0.854419
vt 0.019495 0.019495
vt 0.595617 0.854419
vt 0.615142 0.019495
vt 0.615142 0.854419
vt 0.134268 0.854419
vt 0.210053 0.019495
vt 0.210053 0.854419
vt 0.673655 0.019495
vt 0.654131 0.854419
vt 0.654131 0.019495
vt 0.278608 0.928329
vt 0.354392 0.908804
vt 0.354392 0.928329
vt 0.469166 0.908804
vt 0.393381 0.928329
vt 0.393381 0.908804
vt 0.823380 0.019495
vt 0.951057 0.852828
vt 0.823380 0.186161
vt 0.823380 0.352828
vt 0.823380 0.647172
vt 0.823380 0.813839
vt 0.324827 0.019495
vt 0.498114 0.019495
vt 0.363816 0.854419
vt 0.556628 0.019495
vt 0.049060 0.928329
vt 0.239618 0.908804
vt 0.095279 0.854419
vt 0.595617 0.019495
vt 0.134268 0.019495
vt 0.673655 0.854419
vt 0.278608 0.908804
vt 0.469166 0.928329
s 0
usemtl Lever
f 2/1/1 3/2/1 1/3/1
f 4/4/2 7/5/2 3/6/2
f 8/7/3 5/8/3 7/9/3
f 6/10/4 1/11/4 5/12/4
f 7/13/5 1/14/5 3/15/5
f 4/16/6 6/17/6 8/18/6
f 10/19/5 11/20/5 9/21/5
f 12/22/2 15/23/2 11/24/2
f 16/25/6 13/26/6 15/27/6
f 14/28/4 9/29/4 13/30/4
f 15/31/3 9/32/3 11/33/3
f 12/34/1 14/35/1 16/36/1
f 19/37/6 18/38/6 17/39/6
f 23/40/2 20/41/2 19/42/2
f 21/43/5 24/44/5 23/45/5
f 17/46/4 22/47/4 21/48/4
f 17/49/3 23/50/3 19/51/3
f 22/52/1 20/53/1 24/54/1
f 2/1/1 4/55/1 3/2/1
f 4/4/2 8/56/2 7/5/2
f 8/7/3 6/57/3 5/8/3
f 6/10/4 2/58/4 1/11/4
f 7/13/5 5/59/5 1/14/5
f 4/16/6 2/60/6 6/17/6
f 10/19/5 12/61/5 11/20/5
f 12/22/2 16/62/2 15/23/2
f 16/25/6 14/63/6 13/26/6
f 14/28/4 10/64/4 9/29/4
f 15/31/3 13/65/3 9/32/3
f 12/34/1 10/66/1 14/35/1
f 19/37/6 20/67/6 18/38/6
f 23/40/2 24/68/2 20/41/2
f 21/43/5 22/69/5 24/44/5
f 17/46/4 18/70/4 22/47/4
f 17/49/3 21/71/3 23/50/3
f 22/52/1 18/72/1 20/53/1
